<?xml version="1.0" encoding="utf-8"?>
<!-- Generator: Adobe Illustrator 27.0.1, SVG Export Plug-In . SVG Version: 6.00 Build 0)  -->
<svg version="1.1" id="Capa_1" xmlns="http://www.w3.org/2000/svg" xmlns:xlink="http://www.w3.org/1999/xlink" x="0px" y="0px"
	 viewBox="0 0 464.5 202.1" style="enable-background:new 0 0 464.5 202.1;" xml:space="preserve">
<style type="text/css">
	.st0{fill:#424242;}
	.st1{fill:#D20A11;}
	.st2{enable-background:new    ;}
</style>
<path class="st0" d="M58.6,56.4h7v33l17.8-27.2c2.4-3.6,6.4-5.8,10.7-5.8h13.6L85.4,88.9l23.2,47.1H90.5l-10.6-28
	c-3.3-5.6-5.1-6.3-8.4-5.8c-3.2,0.6-5.9,3.3-5.9,6v21.6c0,3.4-2.1,6.1-5.4,6.1H50.1V64.9C50.1,60.2,53.9,56.4,58.6,56.4"/>
<path class="st0" d="M180.8,137.2c-18.6-0.6-28-11.4-28-32.4s9.4-31.5,28.2-31.6c19.6,0,28.8,12,27.6,36.1h-39.9
	c0.6,9.4,4.7,14.2,12.2,14.2c3.6,0,7-1.5,10-4.4c1.4-1.5,3.1-2.2,5.2-2.2h11.4C204.3,130,195.9,137.2,180.8,137.2 M169,98.3h23.2
	c-0.9-8.2-4.8-12.3-11.4-12.3S170.2,90.1,169,98.3"/>
<path class="st0" d="M271.5,59v50.3c0,18.5-9.7,27.7-28.9,27.6c-19.1-0.4-28.7-10.7-28.7-31.2c0-21,8.2-31.7,24.6-32.3
	c7.7,0,13.6,3.2,17.6,9.6V51.2h7.7C268,51.2,271.5,54.8,271.5,59 M229.9,105c-0.1,12.5,4.1,18.8,12.9,18.8c8.9,0,13.3-6.3,13.3-18.8
	c-0.4-11.9-4.7-17.7-13.1-17.7C234.6,87.3,230.3,93.1,229.9,105"/>
<path class="st0" d="M284.7,72.4c5,0,7.5,2.4,7.5,7.5V136h-15.5V72.4H284.7z"/>
<path class="st0" d="M145.5,74.3c-6.5,0-12.1,1-16.6,3c-1-2.6-3.3-3.9-7-3.9h-8.2v30.8V136v0h15.7v-32.5c0.1-8.7,4.4-13.1,12.9-13.1
	h5.2V74.3H145.5z"/>
<path class="st0" d="M292.1,58.9c0,4.3-3.5,7.7-7.7,7.7c-4.3,0-7.7-3.5-7.7-7.7s3.5-7.7,7.7-7.7C288.6,51.2,292.1,54.7,292.1,58.9"
	/>
<path class="st1" d="M325.1,137.2V99.5l-32.9-63.2h22.8l19.7,43.5l15.4-37.4c1.7-4,4.5-6.1,8.6-6.1h15.3l-29.9,63.2v37.7
	L325.1,137.2L325.1,137.2z"/>
<path class="st1" d="M50.1,170.1c31.8-6.8,63.8-11.4,95.9-15.2l12.1-1.4l12.1-1.2c8-0.8,16.1-1.5,24.2-2.2s16.1-1.2,24.2-1.8
	c8.1-0.5,16.1-1,24.2-1.4c8.1-0.4,16.2-0.7,24.2-0.9l12.1-0.3c4-0.1,8.1-0.2,12.1-0.2l12.1-0.1c4,0,8.1,0.1,12.1,0.1
	c8.1,0.1,16.2,0.3,24.3,0.7c4,0.2,8.1,0.3,12.2,0.6c4,0.2,8.1,0.4,12.1,0.8l12.1,1.1c4,0.4,8.1,0.8,12.1,1.3
	c8.1,1.1,16.1,2.1,24.2,3.6l3,0.6l3,0.6l6,1.3c2,0.4,4,1,5.9,1.5c2,0.5,3.9,1.1,5.9,1.6l-0.2,1c-15.9-2.7-32-3.9-48.1-4.7
	c-16.1-0.8-32.2-1.1-48.3-1.1c-16.1,0-32.2,0.3-48.4,0.8c-16.1,0.5-32.2,1.1-48.3,1.9c-32.2,1.5-64.4,3.5-96.6,5.9
	c-16.1,1.2-32.2,2.5-48.2,3.8c-16.1,1.3-32.1,2.7-48.2,4.2L50.1,170.1z"/>
<path class="st1" d="M420,86.4c4.7-3.2,8-5.3,9-5.9c4.1-2.5,1.9-5,1.9-5c-0.4,0-0.9,0-1.3,0.1c0,0-0.1,0-0.1,0c-0.2,0-0.4,0-0.5,0.1
	c-0.1,0-0.2,0-0.2,0c-0.1,0-0.3,0-0.4,0.1c-0.1,0-0.2,0-0.3,0c-0.1,0-0.2,0-0.4,0.1c-0.1,0-0.2,0-0.3,0c-0.1,0-0.2,0-0.4,0.1
	c-0.1,0-0.2,0-0.3,0c-0.1,0-0.2,0-0.4,0.1c-0.1,0-0.2,0-0.2,0c-0.1,0-0.2,0.1-0.4,0.1c-0.1,0-0.1,0-0.2,0c-0.2,0-0.4,0.1-0.5,0.1
	c0,0,0,0,0,0c-0.2,0-0.3,0.1-0.5,0.1c0,0-0.1,0-0.1,0c-0.1,0-0.2,0-0.3,0.1c-0.1,0-0.1,0-0.2,0c-0.1,0-0.1,0-0.2,0.1
	c0,0-0.1,0-0.1,0c-0.1,0-0.1,0-0.2,0.1c0,0-0.1,0-0.1,0c0,0-0.1,0-0.1,0c0,0,0,0-0.1,0c0,0-0.1,0-0.1,0h0c0,0,0,0,0,0l0,0
	c-1.2,0.3-2.4,0.6-3.6,0.9c-0.4,0.1-0.9,0.2-1.3,0.3c-6.3,1.7-12.1,3.9-17.5,6.5c-0.5,0.2-1,0.5-1.5,0.7c-0.5,0.3-1.1,0.6-1.6,0.8
	c-0.5,0.2-0.9,0.5-1.4,0.7c-0.6,0.3-1.2,0.7-1.8,1c-4.7,2.7-9,5.5-12.9,8.6l2-6.8l9.5-32.8l7,23.7c5-2.4,10.3-4.4,16.2-6.1
	l-12.3-37.9h-15c-4.5,0-7.5,2.2-8.8,6.7l-30.4,94.2h19.9c5.4-13.7,21.4-28.6,35.5-39.7l5.7,19.1h0l6,20.6h19.7L420,86.4z"/>
<g class="st2">
	<path class="st0" d="M44.5,125.5c0,5.4-2.1,8.2-5.3,8.2h-2.4v-0.1c1.6-1.8,2.9-4.2,2.9-7.5c0-4-1.4-5.3-3.5-5.3
		c-1.8,0-2.7,0.7-3.9,6.4c-1,4.5-3.2,7.1-6.9,7.1c-4.5,0-8.7-3.7-8.7-10c0-6.2,2.7-8,4.9-8h2.5v0.2c-1.8,1.6-2.6,4-2.6,6.9
		c0,4.1,1.4,5.7,3.4,5.7c1.6,0,2.6-1.2,3.6-6.2c1-4.9,3.6-7.3,7.1-7.3C41,115.4,44.5,119,44.5,125.5z"/>
	<path class="st0" d="M19.6,109.4c-0.8-0.7-1.4-1.6-1.4-2.5v-1.2h4.8v-7.3h2.1c1.1,0,2.5,1,2.5,3.1v4.2h8.2c2.7,0,3.8-1.2,3.8-3.3
		c0-1.7-0.2-3-0.7-3.8v-0.2h1.9c2.1,0,3.5,1.6,3.5,4.6c0,5.3-2.9,7.9-7.8,7.9H23.8C21.7,110.9,20.9,110.5,19.6,109.4z"/>
	<path class="st0" d="M21.5,92.1c0,1.7-1.4,3-3.1,3c-1.7,0-3-1.4-3-3c0-1.7,1.4-3.1,3-3.1C20,89,21.5,90.4,21.5,92.1z M44.2,88.4
		c0,4.1-2.3,6.3-6.6,6.3H23.4v-1.5c0-2.3,1.2-3.7,3.9-3.7h9.8c2.1,0,2.8-0.9,2.8-3.2v-1H41C43.3,85.2,44.2,86.1,44.2,88.4z"/>
	<path class="st0" d="M44.2,75.4c0,4.3-2.3,6.7-6.6,6.7H15.9v-1.5c0-2.6,1.5-3.7,3.5-3.7h17.7c2.1,0,2.8-1.1,2.8-3.6v-1.4H41
		C43.3,71.9,44.2,73.1,44.2,75.4z"/>
	<path class="st0" d="M44.4,61v1.1c0,5-2.8,8.4-6.7,8.4c-3.7,0-6.6-2.7-6.6-10.5v-1.8h-0.3c-3,0-3.9,1.4-3.9,4.5
		c0,3.8,1.4,5.9,2.4,6.7v0.2h-1.7c-2.3,0-5.2-2.1-5.2-7.7c0-4.7,2.2-8.9,9.4-8.9h4.8C41.3,53.1,44.4,56.4,44.4,61z M34.8,58.2v1.9
		c0,4,0.9,5.1,2.7,5.1c1.6,0,2.6-1.3,2.6-3.6c0-2.3-1.1-3.4-3.2-3.4H34.8z"/>
</g>
</svg>
